<?xml version="1.0" encoding="UTF-8"?>
<svg id="Layer_1" data-name="Layer 1" xmlns="http://www.w3.org/2000/svg" viewBox="0 0 1636.75 387.96">
  <defs>
    <style>
      .cls-1 {
        fill: #8e68ad;
      }

      .cls-2 {
        fill: #7853a2;
      }
    </style>
  </defs>
  <g>
    <path class="cls-2" d="M501.32,77.52c12.91,0,24.13,2.13,33.65,6.4,9.52,4.27,17.45,9.8,23.8,16.58,6.34,6.79,11.05,14.39,14.11,22.81,3.06,8.43,4.6,16.91,4.6,25.44,0,10.29-1.53,19.81-4.6,28.56-3.07,8.76-7.77,16.31-14.11,22.65-6.35,6.35-14.28,11.27-23.8,14.77-9.52,3.5-20.74,5.25-33.65,5.25h-56.37c-1.68,0-3.04,1.36-3.04,3.04v81.23c0,1.68-1.36,3.04-3.04,3.04h-26.74c-1.68,0-3.04-1.36-3.04-3.04V104.85c0-15.1,12.24-27.34,27.34-27.34h64.91ZM501.32,190.44c7.22,0,13.51-1.2,18.88-3.61,5.36-2.41,9.85-5.58,13.46-9.52,3.61-3.94,6.34-8.37,8.21-13.3,1.86-4.92,2.79-9.9,2.79-14.94s-.93-10.39-2.79-15.43c-1.86-5.03-4.6-9.52-8.21-13.46-3.61-3.94-8.1-7.11-13.46-9.52-5.37-2.41-11.65-3.61-18.88-3.61h-49.87c-5.27,0-9.55,4.27-9.55,9.55v64.29c0,5.27,4.27,9.55,9.55,9.55h49.87Z"/>
    <path class="cls-2" d="M673.98,162.83c0,1.63-1.27,2.98-2.9,3.06-6.12.28-11.83,1.46-17.12,3.54-6.13,2.41-11.44,5.69-15.92,9.85-4.49,4.16-8.04,9.03-10.67,14.61-2.63,5.58-3.94,11.55-3.94,17.89v92.45c0,1.7-1.38,3.07-3.07,3.07h-25.04c-1.7,0-3.07-1.38-3.07-3.07v-157.99c0-1.7,1.38-3.07,3.07-3.07h25.04c1.7,0,3.07,1.38,3.07,3.07v8.87c0,2.72,3.27,4.08,5.22,2.18,5.22-5.09,10.92-9.31,17.11-12.65,7.45-4.02,15.78-6.24,24.99-6.66,1.76-.08,3.24,1.31,3.24,3.08v21.76Z"/>
    <path class="cls-2" d="M720.11,237.39c-9.13,0-14.92,9.73-10.63,17.79.25.48.51.95.78,1.42,3.39,6.02,7.6,11.27,12.64,15.76,5.03,4.49,10.67,7.99,16.91,10.51,6.24,2.52,12.97,3.78,20.19,3.78,9.63,0,18.43-2.35,26.43-7.06,7.19-4.23,13.44-9.76,18.77-16.56,1.04-1.32,2.91-1.64,4.37-.81l20.3,11.67c1.81,1.04,2.27,3.44,1,5.09-7.94,10.34-17.78,18.7-29.51,25.06-12.91,7-26.92,10.5-42.02,10.5-12.26,0-23.75-2.3-34.47-6.89-10.73-4.6-20.08-10.94-28.07-19.04-7.99-8.09-14.28-17.51-18.88-28.23-4.6-10.72-6.89-22.21-6.89-34.47s2.3-23.74,6.89-34.47c4.6-10.72,10.88-20.13,18.88-28.23,7.99-8.09,17.34-14.44,28.07-19.04,10.72-4.6,22.1-6.89,34.14-6.89s23.36,2.3,33.98,6.89c10.61,4.6,19.91,10.83,27.9,18.71,7.99,7.88,14.28,17.07,18.88,27.58,4.27,9.76,6.56,20,6.86,30.7.25,8.67-6.51,16.16-15.19,16.24-.07,0-.14,0-.21,0h-111.11ZM796.11,212.11c9.27,0,15.26-10.01,10.67-18.07-.06-.1-.12-.21-.18-.31-3.28-5.69-7.22-10.67-11.82-14.94-4.6-4.27-9.85-7.6-15.76-10.01-5.91-2.41-12.15-3.61-18.71-3.61-7.01,0-13.63,1.21-19.86,3.61-6.24,2.41-11.82,5.74-16.74,10.01-4.92,4.27-9.08,9.25-12.47,14.94l-.1.17c-4.78,8.04,1.02,18.22,10.37,18.22h74.6Z"/>
    <path class="cls-2" d="M973.37,211.78c0-7.22-1.1-13.68-3.28-19.37-2.19-5.69-5.09-10.51-8.7-14.44-3.61-3.94-7.88-6.95-12.8-9.03-4.92-2.08-10.23-3.12-15.92-3.12-6.13,0-11.82,1.21-17.07,3.61-5.25,2.41-9.85,5.69-13.79,9.85-3.94,4.16-7.01,9.03-9.19,14.61-2.19,5.58-3.28,11.55-3.28,17.89v92.34c0,1.76-1.43,3.19-3.19,3.19h-24.81c-1.76,0-3.19-1.43-3.19-3.19v-157.76c0-1.76,1.43-3.19,3.19-3.19h24.81c1.76,0,3.19,1.43,3.19,3.19v8.31c0,2.85,3.43,4.24,5.45,2.23,4.94-4.91,10.35-9,16.22-12.25,8.09-4.48,17.29-6.73,27.57-6.73,11.82,0,22.76,2.95,32.83,8.86,8.68,5.1,15.58,11.66,20.68,19.68,1.17,1.84,3.77,2.05,5.16.37,16-19.28,34.64-28.92,55.9-28.92,8.97,0,17.51,1.75,25.61,5.25,8.09,3.5,15.21,8.37,21.34,14.61,6.13,6.24,10.94,13.74,14.44,22.49,3.5,8.76,5.25,18.5,5.25,29.22v94.64c0,1.76-1.43,3.19-3.19,3.19h-24.81c-1.76,0-3.19-1.43-3.19-3.19v-92.34c0-7.22-1.1-13.68-3.28-19.37-2.19-5.69-5.09-10.51-8.7-14.44-3.61-3.94-7.88-6.95-12.8-9.03-4.92-2.08-10.23-3.12-15.92-3.12-6.13,0-11.82,1.21-17.07,3.61-5.25,2.41-9.85,5.69-13.79,9.85-3.94,4.16-7.01,9.03-9.19,14.61-2.19,5.58-3.28,11.55-3.28,17.89v92.34c0,1.76-1.43,3.19-3.19,3.19h-24.81c-1.76,0-3.19-1.43-3.19-3.19v-92.34Z"/>
    <path class="cls-2" d="M1136.18,94.59c0-5.47,1.91-10.12,5.74-13.95,3.83-3.83,8.48-5.74,13.95-5.74s10.12,1.92,13.95,5.74c3.83,3.83,5.74,8.48,5.74,13.95s-1.92,10.13-5.74,13.95c-3.83,3.83-8.48,5.74-13.95,5.74s-10.12-1.91-13.95-5.74c-3.83-3.83-5.74-8.48-5.74-13.95ZM1143.87,143.17h24.34c1.89,0,3.42,1.53,3.42,3.42v157.29c0,1.89-1.53,3.42-3.42,3.42h-24.34c-1.89,0-3.42-1.53-3.42-3.42v-157.29c0-1.89,1.53-3.42,3.42-3.42Z"/>
    <path class="cls-2" d="M720.11,237.39c-9.13,0-14.92,9.73-10.63,17.79.25.48.51.95.78,1.42,3.39,6.02,7.6,11.27,12.64,15.76,5.03,4.49,10.67,7.99,16.91,10.51,6.24,2.52,12.97,3.78,20.19,3.78,9.63,0,18.43-2.35,26.43-7.06,7.19-4.23,13.44-9.76,18.77-16.56,1.04-1.32,2.91-1.64,4.37-.81l20.3,11.67c1.81,1.04,2.27,3.44,1,5.09-7.94,10.34-17.78,18.7-29.51,25.06-12.91,7-26.92,10.5-42.02,10.5-12.26,0-23.75-2.3-34.47-6.89-10.73-4.6-20.08-10.94-28.07-19.04-7.99-8.09-14.28-17.51-18.88-28.23-4.6-10.72-6.89-22.21-6.89-34.47s2.3-23.74,6.89-34.47c4.6-10.72,10.88-20.13,18.88-28.23,7.99-8.09,17.34-14.44,28.07-19.04,10.72-4.6,22.1-6.89,34.14-6.89s23.36,2.3,33.98,6.89c10.61,4.6,19.91,10.83,27.9,18.71,7.99,7.88,14.28,17.07,18.88,27.58,4.27,9.76,6.56,20,6.86,30.7.25,8.67-6.51,16.16-15.19,16.24-.07,0-.14,0-.21,0h-111.11ZM796.11,212.11c9.27,0,15.26-10.01,10.67-18.07-.06-.1-.12-.21-.18-.31-3.28-5.69-7.22-10.67-11.82-14.94-4.6-4.27-9.85-7.6-15.76-10.01-5.91-2.41-12.15-3.61-18.71-3.61-7.01,0-13.63,1.21-19.86,3.61-6.24,2.41-11.82,5.74-16.74,10.01-4.92,4.27-9.08,9.25-12.47,14.94l-.1.17c-4.78,8.04,1.02,18.22,10.37,18.22h74.6Z"/>
    <path class="cls-2" d="M1232.88,237.39c-9.13,0-14.92,9.73-10.63,17.79.25.48.51.95.78,1.42,3.39,6.02,7.6,11.27,12.64,15.76,5.03,4.49,10.67,7.99,16.91,10.51,6.24,2.52,12.97,3.78,20.19,3.78,9.63,0,18.43-2.35,26.43-7.06,7.19-4.23,13.44-9.76,18.77-16.56,1.04-1.32,2.91-1.64,4.37-.81l20.3,11.67c1.81,1.04,2.27,3.44,1,5.09-7.94,10.34-17.78,18.7-29.51,25.06-12.91,7-26.92,10.5-42.02,10.5-12.26,0-23.75-2.3-34.47-6.89-10.73-4.6-20.08-10.94-28.07-19.04-7.99-8.09-14.28-17.51-18.88-28.23-4.6-10.72-6.89-22.21-6.89-34.47s2.3-23.74,6.89-34.47c4.6-10.72,10.88-20.13,18.88-28.23,7.99-8.09,17.34-14.44,28.07-19.04,10.72-4.6,22.1-6.89,34.14-6.89s23.36,2.3,33.98,6.89c10.61,4.6,19.91,10.83,27.9,18.71,7.99,7.88,14.28,17.07,18.88,27.58,4.27,9.76,6.56,20,6.86,30.7.25,8.67-6.51,16.16-15.19,16.24-.07,0-.14,0-.21,0h-111.11ZM1308.88,212.11c9.27,0,15.26-10.01,10.67-18.07-.06-.1-.12-.21-.18-.31-3.28-5.69-7.22-10.67-11.82-14.94-4.6-4.27-9.85-7.6-15.76-10.01-5.91-2.41-12.15-3.61-18.71-3.61-7.01,0-13.63,1.21-19.86,3.61-6.24,2.41-11.82,5.74-16.74,10.01-4.92,4.27-9.08,9.25-12.47,14.94l-.1.17c-4.78,8.04,1.02,18.22,10.37,18.22h74.6Z"/>
    <path class="cls-2" d="M1501.71,243.29c-9.13,0-14.92,9.73-10.63,17.79.25.48.51.95.78,1.42,3.39,6.02,7.6,11.27,12.64,15.76,5.03,4.49,10.67,7.99,16.91,10.51,6.24,2.52,12.97,3.78,20.19,3.78,9.63,0,18.43-2.35,26.43-7.06,7.19-4.23,13.44-9.76,18.77-16.56,1.04-1.32,2.91-1.64,4.37-.81l20.3,11.67c1.81,1.04,2.27,3.44,1,5.09-7.94,10.34-17.78,18.7-29.51,25.06-12.91,7-26.92,10.5-42.02,10.5-12.26,0-23.75-2.3-34.47-6.89-10.73-4.6-20.08-10.94-28.07-19.04-7.99-8.09-14.28-17.51-18.88-28.23-4.6-10.72-6.89-22.21-6.89-34.47s2.3-23.74,6.89-34.47c4.6-10.72,10.88-20.13,18.88-28.23,7.99-8.09,17.34-14.44,28.07-19.04,10.72-4.6,22.1-6.89,34.14-6.89s23.36,2.3,33.98,6.89c10.61,4.6,19.91,10.83,27.9,18.71,7.99,7.88,14.28,17.07,18.88,27.58,4.27,9.76,6.56,20,6.86,30.7.25,8.67-6.51,16.16-15.19,16.24-.07,0-.14,0-.21,0h-111.11ZM1577.71,218.02c9.27,0,15.26-10.01,10.67-18.07-.06-.1-.12-.21-.18-.31-3.28-5.69-7.22-10.67-11.82-14.94-4.6-4.27-9.85-7.6-15.76-10.01-5.91-2.41-12.15-3.61-18.71-3.61-7.01,0-13.63,1.21-19.86,3.61-6.24,2.41-11.82,5.74-16.74,10.01-4.92,4.27-9.08,9.25-12.47,14.94l-.1.17c-4.78,8.04,1.02,18.22,10.37,18.22h74.6Z"/>
    <path class="cls-2" d="M1452.63,162.83c0,1.63-1.27,2.98-2.9,3.06-6.12.28-11.83,1.46-17.12,3.54-6.13,2.41-11.44,5.69-15.92,9.85-4.49,4.16-8.04,9.03-10.67,14.61-2.63,5.58-3.94,11.55-3.94,17.89v92.45c0,1.7-1.38,3.07-3.07,3.07h-25.04c-1.7,0-3.07-1.38-3.07-3.07v-157.99c0-1.7,1.38-3.07,3.07-3.07h25.04c1.7,0,3.07,1.38,3.07,3.07v8.87c0,2.72,3.27,4.08,5.22,2.18,5.22-5.09,10.92-9.31,17.11-12.65,7.45-4.02,15.78-6.24,24.99-6.66,1.76-.08,3.24,1.31,3.24,3.08v21.76Z"/>
  </g>
  <g>
    <path class="cls-1" d="M299.08,308.61c-.7,1.83-1.44,3.61-2.21,5.37-8.75,19.9-21.5,34.98-38.25,45.23-16.75,10.26-37.17,15.38-61.23,15.38h-66.22c3.12-1.34,6.37-2.89,9.78-4.65,14.22-7.3,29.48-15.9,45.79-25.8,11.73-6.95,23.41-13.65,35.04-20.07,11.64-6.43,22.62-11.78,32.96-16.03,10.33-4.26,19.39-6.38,27.14-6.38,4.37,0,7.66.56,9.84,1.69,2.19,1.13,3.88,2.3,5.07,3.52.8.69,1.56,1.29,2.29,1.74Z"/>
    <path class="cls-2" d="M43.56,211.72c0,.48-1,2.84-2.98,7.04-3.67,7.16-8.48,17.73-14.42,31.69-4.52,10.62-8.79,22.17-12.81,34.65v-65.75c2.62-.4,5.26-.91,7.94-1.52,8.06-1.86,14.21-3.52,18.45-5,2.26-.75,3.53-1.11,3.82-1.11Z"/>
    <path class="cls-2" d="M319.76,192.71v.47c0,27.74-3.19,52.18-9.57,73.35-.63-.33-1.28-.65-1.99-.96-5.64-2.53-12.34-3.78-20.12-3.78-10.03,0-21.75,2.68-35.16,8.04-13.42,5.37-27.65,12.11-42.69,20.22-15.04,8.11-30.21,16.65-45.5,25.63-20.82,12.05-40.19,22.62-58.12,31.72-17.93,9.09-32.28,13.63-43.06,13.63-6.02,0-10.4-1.31-13.17-3.94-2.76-2.63-4.45-5.81-5.07-9.53-.63-3.72-.95-7.23-.95-10.51,0-12.71,3.13-29.3,9.41-49.79,6.26-20.5,15.04-42.24,26.32-65.24,2.01-4.16,3.77-7.28,5.27-9.37,1.51-2.09,3.45-3.83,5.83-5.26,2.38-1.42,6.2-3.23,11.47-5.43,46.39-20.6,89.95-45.4,130.69-74.44,21.48-15.3,40.92-30.5,58.33-45.59,4.4,6.45,8.3,13.47,11.7,21.08,10.92,24.4,16.37,54.3,16.37,89.7Z"/>
    <path class="cls-1" d="M276.39,61.24c-16.97,14.56-35.24,28.54-54.81,41.95-31.17,21.38-59.53,38.9-85.09,52.56-25.54,13.68-41.02,20.51-46.38,20.51l-.37-.32c0-2.36,3.86-9.57,11.56-21.63,7.7-12.07,18.08-26.71,31.17-43.9,13.08-17.2,27.87-35.15,44.37-53.84,11.1-12.57,22.59-24.65,34.47-36.21,12.51,3.05,23.9,7.63,34.18,13.71,11.99,7.11,22.3,16.17,30.91,27.17Z"/>
    <path class="cls-2" d="M182.06,14.23c-13.7,12.85-27.44,26.95-41.25,42.3-32.37,36.05-60.99,75.59-85.88,118.63-.51.88-1.01,1.67-1.52,2.33-1.53,3.33-2.98,5.77-4.38,7.32-1.41,1.55-3.37,2.84-5.91,3.83-2.54.99-6.6,2.28-12.19,3.83l-3.81,1.33c-5.3,1.59-9.9,2.87-13.79,3.85V11.79h137.44c11.02,0,21.44.81,31.26,2.44Z"/>
  </g>
</svg>