<?xml version="1.0" encoding="UTF-8"?>
<svg id="Layer_1" data-name="Layer 1" xmlns="http://www.w3.org/2000/svg" viewBox="0 0 452.14 466.1">
  <defs>
    <style>
      .cls-1 {
        fill: #8e68ad;
      }

      .cls-2 {
        fill: #7853a2;
      }
    </style>
  </defs>
  <path class="cls-1" d="M394.02,377.57c-.86,2.24-1.76,4.42-2.7,6.56-10.7,24.34-26.29,42.78-46.78,55.32-20.49,12.54-45.46,18.81-74.89,18.81h-80.99c3.81-1.64,7.79-3.54,11.96-5.68,17.39-8.92,36.06-19.44,56-31.55,14.34-8.51,28.64-16.69,42.86-24.55,14.23-7.86,27.66-14.4,40.31-19.61,12.64-5.21,23.72-7.8,33.2-7.8,5.35,0,9.36.68,12.03,2.07,2.68,1.38,4.74,2.81,6.21,4.3.98.85,1.91,1.57,2.8,2.13Z"/>
  <path class="cls-2" d="M81.51,259.07c0,.59-1.22,3.47-3.64,8.61-4.49,8.76-10.37,21.68-17.63,38.76-5.52,12.99-10.76,27.12-15.67,42.38v-80.41c3.2-.49,6.44-1.12,9.71-1.86,9.86-2.27,17.38-4.3,22.56-6.11,2.76-.91,4.32-1.36,4.68-1.36Z"/>
  <path class="cls-2" d="M419.31,235.82v.57c0,33.93-3.91,63.82-11.7,89.7-.77-.41-1.56-.8-2.43-1.17-6.89-3.09-15.1-4.63-24.6-4.63-12.27,0-26.6,3.27-43,9.84-16.42,6.56-33.81,14.81-52.21,24.72-18.4,9.91-36.95,20.37-55.65,31.35-25.46,14.74-49.15,27.67-71.08,38.8-21.93,11.12-39.47,16.67-52.66,16.67-7.36,0-12.72-1.61-16.1-4.82-3.38-3.21-5.44-7.1-6.2-11.66-.77-4.55-1.16-8.85-1.16-12.86,0-15.55,3.83-35.84,11.51-60.89,7.66-25.07,18.4-51.66,32.19-79.79,2.46-5.09,4.61-8.91,6.44-11.46,1.85-2.55,4.22-4.69,7.13-6.43,2.91-1.74,7.59-3.95,14.03-6.64,56.73-25.19,110.01-55.53,159.84-91.04,26.27-18.72,50.05-37.3,71.33-55.76,5.38,7.89,10.15,16.48,14.31,25.78,13.35,29.85,20.02,66.41,20.02,109.71Z"/>
  <path class="cls-1" d="M366.26,75.03c-20.75,17.81-43.1,34.9-67.04,51.31-38.12,26.14-72.81,47.57-104.06,64.28-31.24,16.73-50.16,25.09-56.73,25.09l-.45-.4c0-2.89,4.72-11.7,14.13-26.45,9.42-14.76,22.12-32.66,38.12-53.69,15.99-21.03,34.08-42.99,54.26-65.85,13.58-15.38,27.62-30.14,42.15-44.29,15.31,3.73,29.23,9.33,41.8,16.77,14.66,8.7,27.27,19.77,37.8,33.23Z"/>
  <path class="cls-2" d="M250.9,17.54c-16.76,15.71-33.56,32.96-50.45,51.74-39.59,44.09-74.6,92.45-105.03,145.09-.62,1.08-1.23,2.04-1.86,2.84-1.87,4.08-3.65,7.06-5.35,8.96-1.72,1.9-4.12,3.47-7.22,4.68-3.1,1.22-8.08,2.78-14.9,4.68l-4.65,1.63c-6.48,1.95-12.11,3.51-16.87,4.71V14.55h168.1c13.47,0,26.22.99,38.23,2.98Z"/>
</svg>