<?xml version="1.0" encoding="UTF-8"?>
<svg id="Layer_1" data-name="Layer 1" xmlns="http://www.w3.org/2000/svg" viewBox="0 0 2000 1000">
  <defs>
    <style>
      .cls-1 {
        fill: #e9eee3;
      }

      .cls-2 {
        fill: #67b392;
      }
    </style>
  </defs>
  <g>
    <path class="cls-1" d="M213.71,371.39c11.4,0,21.3,1.88,29.7,5.65,8.41,3.77,15.4,8.65,21.01,14.63,5.6,5.99,9.75,12.71,12.46,20.14,2.7,7.44,4.06,14.92,4.06,22.46,0,9.08-1.35,17.49-4.06,25.21-2.71,7.73-6.86,14.39-12.46,20-5.61,5.61-12.61,9.95-21.01,13.04-8.4,3.09-18.31,4.64-29.7,4.64h-49.77c-1.48,0-2.69,1.2-2.69,2.69v71.71c0,1.48-1.2,2.69-2.69,2.69h-23.61c-1.48,0-2.69-1.2-2.69-2.69v-176.04c0-13.33,10.8-24.13,24.13-24.13h57.3ZM213.71,471.08c6.38,0,11.93-1.06,16.66-3.19,4.73-2.12,8.69-4.93,11.88-8.4,3.19-3.48,5.6-7.39,7.25-11.74,1.64-4.35,2.46-8.74,2.46-13.19s-.82-9.17-2.46-13.62c-1.65-4.44-4.06-8.4-7.25-11.88-3.19-3.48-7.15-6.28-11.88-8.4-4.74-2.12-10.29-3.19-16.66-3.19h-44.03c-4.65,0-8.43,3.77-8.43,8.43v56.75c0,4.65,3.77,8.43,8.43,8.43h44.03Z"/>
    <path class="cls-1" d="M366.14,446.7c0,1.44-1.12,2.63-2.56,2.7-5.4.25-10.44,1.29-15.12,3.13-5.41,2.13-10.1,5.03-14.06,8.69-3.96,3.67-7.1,7.97-9.42,12.9-2.32,4.93-3.48,10.19-3.48,15.79v81.62c0,1.5-1.21,2.71-2.71,2.71h-22.11c-1.5,0-2.71-1.21-2.71-2.71v-139.48c0-1.5,1.21-2.71,2.71-2.71h22.11c1.5,0,2.71,1.21,2.71,2.71v7.83c0,2.4,2.89,3.6,4.6,1.93,4.6-4.5,9.64-8.22,15.1-11.16,6.58-3.55,13.93-5.51,22.06-5.88,1.55-.07,2.86,1.16,2.86,2.72v19.21Z"/>
    <path class="cls-1" d="M406.86,512.52c-8.06,0-13.17,8.59-9.39,15.7.22.42.45.84.69,1.25,2.99,5.32,6.71,9.95,11.16,13.91,4.44,3.96,9.42,7.06,14.92,9.27,5.51,2.22,11.45,3.33,17.82,3.33,8.5,0,16.27-2.07,23.33-6.23,6.35-3.74,11.87-8.61,16.57-14.62.91-1.17,2.57-1.45,3.86-.71l17.92,10.3c1.6.92,2.01,3.03.88,4.49-7.01,9.13-15.69,16.5-26.05,22.12-11.4,6.18-23.76,9.27-37.09,9.27-10.82,0-20.97-2.03-30.43-6.08-9.47-4.06-17.73-9.66-24.78-16.81-7.06-7.15-12.61-15.46-16.66-24.92-4.06-9.46-6.08-19.61-6.08-30.43s2.03-20.96,6.08-30.43c4.06-9.46,9.61-17.77,16.66-24.92,7.05-7.15,15.31-12.75,24.78-16.81,9.46-4.06,19.51-6.09,30.14-6.09s20.62,2.03,29.99,6.09c9.37,4.06,17.58,9.56,24.63,16.52,7.05,6.96,12.61,15.07,16.66,24.34,3.77,8.62,5.79,17.65,6.06,27.1.22,7.66-5.75,14.27-13.41,14.34-.06,0-.12,0-.18,0h-98.09ZM473.95,490.21c8.19,0,13.47-8.84,9.42-15.95-.05-.09-.1-.18-.16-.27-2.9-5.02-6.38-9.42-10.43-13.19-4.06-3.77-8.69-6.71-13.91-8.84-5.21-2.12-10.72-3.19-16.52-3.19-6.19,0-12.03,1.06-17.53,3.19-5.51,2.13-10.43,5.07-14.78,8.84-4.35,3.77-8.02,8.16-11.01,13.19l-.09.15c-4.22,7.1.9,16.08,9.15,16.08h65.86Z"/>
    <path class="cls-1" d="M630.43,489.92c0-6.38-.97-12.07-2.9-17.1-1.93-5.02-4.49-9.27-7.68-12.75-3.19-3.48-6.96-6.13-11.3-7.97-4.35-1.83-9.03-2.75-14.05-2.75-5.41,0-10.43,1.06-15.07,3.19-4.64,2.13-8.69,5.03-12.17,8.69-3.48,3.67-6.19,7.97-8.12,12.9-1.93,4.93-2.9,10.19-2.9,15.79v81.52c0,1.55-1.26,2.81-2.81,2.81h-21.91c-1.55,0-2.81-1.26-2.81-2.81v-139.27c0-1.55,1.26-2.81,2.81-2.81h21.91c1.55,0,2.81,1.26,2.81,2.81v7.33c0,2.51,3.03,3.74,4.81,1.97,4.37-4.34,9.14-7.94,14.32-10.81,7.15-3.96,15.26-5.94,24.34-5.94,10.43,0,20.09,2.61,28.98,7.82,7.66,4.5,13.75,10.29,18.25,17.38,1.03,1.62,3.32,1.81,4.55.33,14.13-17.02,30.58-25.53,49.35-25.53,7.92,0,15.46,1.55,22.6,4.64,7.15,3.09,13.43,7.39,18.84,12.9,5.41,5.51,9.66,12.13,12.75,19.85,3.09,7.73,4.64,16.33,4.64,25.79v83.55c0,1.55-1.26,2.81-2.81,2.81h-21.91c-1.55,0-2.81-1.26-2.81-2.81v-81.52c0-6.38-.97-12.07-2.9-17.1-1.93-5.02-4.49-9.27-7.68-12.75-3.19-3.48-6.96-6.13-11.3-7.97-4.35-1.83-9.04-2.75-14.06-2.75-5.41,0-10.43,1.06-15.07,3.19-4.64,2.13-8.69,5.03-12.17,8.69-3.48,3.67-6.19,7.97-8.12,12.9-1.93,4.93-2.9,10.19-2.9,15.79v81.52c0,1.55-1.26,2.81-2.81,2.81h-21.9c-1.55,0-2.81-1.26-2.81-2.81v-81.52Z"/>
    <path class="cls-1" d="M774.16,386.46c0-4.83,1.69-8.93,5.07-12.32,3.38-3.38,7.48-5.07,12.32-5.07s8.93,1.69,12.32,5.07c3.38,3.38,5.07,7.49,5.07,12.32s-1.69,8.94-5.07,12.32c-3.38,3.38-7.49,5.07-12.32,5.07s-8.94-1.69-12.32-5.07c-3.38-3.38-5.07-7.48-5.07-12.32ZM780.95,429.35h21.48c1.67,0,3.02,1.35,3.02,3.02v138.85c0,1.67-1.35,3.02-3.02,3.02h-21.48c-1.67,0-3.02-1.35-3.02-3.02v-138.85c0-1.67,1.35-3.02,3.02-3.02Z"/>
    <path class="cls-1" d="M406.86,512.52c-8.06,0-13.17,8.59-9.39,15.7.22.42.45.84.69,1.25,2.99,5.32,6.71,9.95,11.16,13.91,4.44,3.96,9.42,7.06,14.92,9.27,5.51,2.22,11.45,3.33,17.82,3.33,8.5,0,16.27-2.07,23.33-6.23,6.35-3.74,11.87-8.61,16.57-14.62.91-1.17,2.57-1.45,3.86-.71l17.92,10.3c1.6.92,2.01,3.03.88,4.49-7.01,9.13-15.69,16.5-26.05,22.12-11.4,6.18-23.76,9.27-37.09,9.27-10.82,0-20.97-2.03-30.43-6.08-9.47-4.06-17.73-9.66-24.78-16.81-7.06-7.15-12.61-15.46-16.66-24.92-4.06-9.46-6.08-19.61-6.08-30.43s2.03-20.96,6.08-30.43c4.06-9.46,9.61-17.77,16.66-24.92,7.05-7.15,15.31-12.75,24.78-16.81,9.46-4.06,19.51-6.09,30.14-6.09s20.62,2.03,29.99,6.09c9.37,4.06,17.58,9.56,24.63,16.52,7.05,6.96,12.61,15.07,16.66,24.34,3.77,8.62,5.79,17.65,6.06,27.1.22,7.66-5.75,14.27-13.41,14.34-.06,0-.12,0-.18,0h-98.09ZM473.95,490.21c8.19,0,13.47-8.84,9.42-15.95-.05-.09-.1-.18-.16-.27-2.9-5.02-6.38-9.42-10.43-13.19-4.06-3.77-8.69-6.71-13.91-8.84-5.21-2.12-10.72-3.19-16.52-3.19-6.19,0-12.03,1.06-17.53,3.19-5.51,2.13-10.43,5.07-14.78,8.84-4.35,3.77-8.02,8.16-11.01,13.19l-.09.15c-4.22,7.1.9,16.08,9.15,16.08h65.86Z"/>
    <path class="cls-1" d="M859.52,512.52c-8.06,0-13.17,8.59-9.39,15.7.22.42.45.84.69,1.25,2.99,5.32,6.71,9.95,11.16,13.91,4.44,3.96,9.42,7.06,14.92,9.27,5.51,2.22,11.45,3.33,17.82,3.33,8.5,0,16.27-2.07,23.33-6.23,6.35-3.74,11.87-8.61,16.57-14.62.91-1.17,2.57-1.45,3.86-.71l17.92,10.3c1.6.92,2.01,3.03.88,4.49-7.01,9.13-15.69,16.5-26.05,22.12-11.4,6.18-23.76,9.27-37.09,9.27-10.82,0-20.97-2.03-30.43-6.08-9.47-4.06-17.73-9.66-24.78-16.81-7.06-7.15-12.61-15.46-16.66-24.92-4.06-9.46-6.08-19.61-6.08-30.43s2.03-20.96,6.08-30.43c4.06-9.46,9.61-17.77,16.66-24.92,7.05-7.15,15.31-12.75,24.78-16.81,9.46-4.06,19.51-6.09,30.14-6.09s20.62,2.03,29.99,6.09c9.37,4.06,17.58,9.56,24.63,16.52,7.05,6.96,12.61,15.07,16.66,24.34,3.77,8.62,5.79,17.65,6.06,27.1.22,7.66-5.75,14.27-13.41,14.34-.06,0-.12,0-.18,0h-98.09ZM926.62,490.21c8.19,0,13.47-8.84,9.42-15.95-.05-.09-.1-.18-.16-.27-2.9-5.02-6.38-9.42-10.43-13.19-4.06-3.77-8.69-6.71-13.91-8.84-5.21-2.12-10.72-3.19-16.52-3.19-6.19,0-12.03,1.06-17.53,3.19-5.51,2.13-10.43,5.07-14.78,8.84-4.35,3.77-8.02,8.16-11.01,13.19l-.09.15c-4.22,7.1.9,16.08,9.15,16.08h65.86Z"/>
    <path class="cls-1" d="M1096.85,517.74c-8.06,0-13.17,8.59-9.39,15.7.22.42.45.84.69,1.25,2.99,5.32,6.71,9.95,11.16,13.91,4.44,3.96,9.42,7.06,14.92,9.27,5.51,2.22,11.45,3.33,17.82,3.33,8.5,0,16.27-2.07,23.33-6.23,6.35-3.74,11.87-8.61,16.57-14.62.91-1.17,2.57-1.45,3.86-.71l17.92,10.3c1.6.92,2.01,3.03.88,4.49-7.01,9.13-15.69,16.5-26.05,22.12-11.4,6.18-23.76,9.27-37.09,9.27-10.82,0-20.97-2.03-30.43-6.08-9.47-4.06-17.73-9.66-24.78-16.81-7.06-7.15-12.61-15.46-16.66-24.92-4.06-9.46-6.08-19.61-6.08-30.43s2.03-20.96,6.08-30.43c4.06-9.46,9.61-17.77,16.66-24.92,7.05-7.15,15.31-12.75,24.78-16.81,9.46-4.06,19.51-6.09,30.14-6.09s20.62,2.03,29.99,6.09c9.37,4.06,17.58,9.56,24.63,16.52,7.05,6.96,12.61,15.07,16.66,24.34,3.77,8.62,5.79,17.65,6.06,27.1.22,7.66-5.75,14.27-13.41,14.34-.06,0-.12,0-.18,0h-98.09ZM1163.95,495.42c8.19,0,13.47-8.84,9.42-15.95-.05-.09-.1-.18-.16-.27-2.9-5.02-6.38-9.42-10.43-13.19-4.06-3.77-8.69-6.71-13.91-8.84-5.21-2.12-10.72-3.19-16.52-3.19-6.19,0-12.03,1.06-17.53,3.19-5.51,2.13-10.43,5.07-14.78,8.84-4.35,3.77-8.02,8.16-11.01,13.19l-.09.15c-4.22,7.1.9,16.08,9.15,16.08h65.86Z"/>
    <path class="cls-1" d="M1053.52,446.7c0,1.44-1.12,2.63-2.56,2.7-5.4.25-10.44,1.29-15.12,3.13-5.41,2.13-10.1,5.03-14.06,8.69-3.96,3.67-7.1,7.97-9.42,12.9s-3.48,10.19-3.48,15.79v81.62c0,1.5-1.21,2.71-2.71,2.71h-22.11c-1.5,0-2.71-1.21-2.71-2.71v-139.48c0-1.5,1.21-2.71,2.71-2.71h22.11c1.5,0,2.71,1.21,2.71,2.71v7.83c0,2.4,2.89,3.6,4.6,1.93,4.6-4.5,9.64-8.22,15.1-11.16,6.58-3.55,13.93-5.51,22.06-5.88,1.55-.07,2.86,1.16,2.86,2.72v19.21Z"/>
  </g>
  <path class="cls-2" d="M1837.73,337.07h-540.98c-16.56,0-30,13.43-30,30v251.93c0,16.57,13.44,30,30,30h540.98c16.57,0,30-13.43,30-30v-251.93c0-16.57-13.43-30-30-30ZM1471.88,584.92c0,1.79-1.45,3.23-3.23,3.23h-99.56c-13.82,0-20.73-7.03-20.73-21.11v-175.32c0-1.78,1.45-3.23,3.23-3.23h21.55c1.79,0,3.23,1.45,3.23,3.23v167.53c0,1.78,1.45,3.23,3.23,3.23h89.05c1.78,0,3.23,1.44,3.23,3.23v19.21ZM1523.35,586.75c0,1.67-1.36,3.02-3.03,3.02h-21.48c-1.67,0-3.03-1.35-3.03-3.02v-138.86c0-1.67,1.36-3.02,3.03-3.02h21.48c1.67,0,3.03,1.35,3.03,3.02v138.86ZM1521.75,414.3c-3.38,3.38-7.49,5.07-12.32,5.07s-8.93-1.69-12.31-5.07-5.07-7.49-5.07-12.32,1.69-8.93,5.07-12.32c3.38-3.37,7.48-5.07,12.31-5.07s8.94,1.7,12.32,5.07c3.38,3.39,5.07,7.49,5.07,12.32s-1.69,8.94-5.07,12.32ZM1630.68,405.88c0,1.74-1.42,3.15-3.16,3.15h-11.13c-6.91,0-12,2-15.26,5.99-3.27,3.99-4.9,9.23-4.9,15.69v11.68c0,1.74,1.41,3.15,3.15,3.15h28.14c1.74,0,3.16,1.41,3.16,3.15v16.51c0,1.75-1.42,3.16-3.16,3.16h-28.14c-1.74,0-3.15,1.41-3.15,3.15v113.49c0,1.74-1.42,3.15-3.16,3.15h-20.3c-1.74,0-3.15-1.41-3.15-3.15v-113.49c0-1.74-1.41-3.15-3.15-3.15h-20.03c-1.74,0-3.15-1.41-3.15-3.16v-16.51c0-1.74,1.41-3.15,3.15-3.15h20.03c1.74,0,3.15-1.41,3.15-3.15v-9.97c0-14.45,3.73-25.77,11.2-33.94,7.47-8.18,18.77-12.27,33.89-12.27h12.81c1.74,0,3.16,1.41,3.16,3.15v16.52ZM1783.69,527.56h-98.27c-8.06,0-13.17,8.59-9.38,15.7.22.42.45.84.68,1.25,3,5.32,6.71,9.95,11.16,13.91,4.44,3.96,9.42,7.06,14.92,9.27,5.51,2.23,11.45,3.34,17.83,3.34,8.49,0,16.27-2.08,23.32-6.23,6.35-3.74,11.87-8.61,16.58-14.62.91-1.17,2.57-1.45,3.85-.71l17.93,10.3c1.59.92,2,3.04.88,4.49-7.01,9.13-15.69,16.51-26.05,22.13-11.4,6.18-23.76,9.27-37.09,9.27-10.83,0-20.97-2.03-30.43-6.09-9.47-4.05-17.73-9.65-24.78-16.8-7.06-7.15-12.61-15.46-16.66-24.93-4.06-9.46-6.09-19.6-6.09-30.42s2.03-20.97,6.09-30.43c4.05-9.47,9.6-17.78,16.66-24.93,7.05-7.14,15.31-12.75,24.78-16.8,9.46-4.06,19.51-6.09,30.14-6.09s20.62,2.03,29.99,6.09c9.37,4.05,17.58,9.56,24.63,16.51,7.05,6.96,12.61,15.07,16.66,24.35,3.78,8.61,5.79,17.65,6.06,27.1.22,7.66-5.75,14.27-13.41,14.34ZM1761.78,489.02c-2.9-5.03-6.38-9.42-10.44-13.19-4.05-3.77-8.69-6.71-13.91-8.84-5.21-2.12-10.72-3.19-16.51-3.19-6.19,0-12.03,1.07-17.54,3.19-5.5,2.13-10.43,5.07-14.78,8.84-4.34,3.77-8.02,8.16-11.01,13.19l-.09.14c-4.21,7.1.9,16.08,9.15,16.08h65.87c8.18,0,13.47-8.84,9.41-15.95-.05-.09-.1-.18-.15-.27Z"/>
</svg>