<svg xmlns="http://www.w3.org/2000/svg" viewBox="0 0 128 128" fill="none">
  <defs>
    <linearGradient id="blue-diamond-light-bg" x1="10" y1="8" x2="118" y2="120" gradientUnits="userSpaceOnUse">
      <stop offset="0" stop-color="#F4F9FF"/>
      <stop offset="1" stop-color="#E6EDF9"/>
    </linearGradient>
    <linearGradient id="blue-diamond-light-gem" x1="32" y1="24" x2="96" y2="104" gradientUnits="userSpaceOnUse">
      <stop offset="0" stop-color="#BEE1FF"/>
      <stop offset="0.5" stop-color="#4E99F1"/>
      <stop offset="1" stop-color="#2E63C9"/>
    </linearGradient>
    <linearGradient id="blue-diamond-light-facet" x1="64" y1="24" x2="64" y2="104" gradientUnits="userSpaceOnUse">
      <stop offset="0" stop-color="#FFFFFF" stop-opacity="0.98"/>
      <stop offset="1" stop-color="#D6E7FF" stop-opacity="0.3"/>
    </linearGradient>
  </defs>

  <rect x="4" y="4" width="120" height="120" rx="28" fill="url(#blue-diamond-light-bg)" stroke="#8EA8CF" stroke-opacity="0.9" stroke-width="2"/>
  <circle cx="64" cy="66" r="38" fill="#6EA9EE" fill-opacity="0.14"/>

  <path d="M64 24L96 52L64 104L32 52L64 24Z" fill="url(#blue-diamond-light-gem)" stroke="#F0F7FF" stroke-opacity="0.95" stroke-width="2"/>
  <path d="M64 24L80 52H48L64 24Z" fill="url(#blue-diamond-light-facet)"/>
  <path d="M48 52H80L64 104L48 52Z" fill="#FFFFFF" fill-opacity="0.22"/>
  <path d="M32 52H48L64 104L32 52Z" fill="#EAF2FF" fill-opacity="0.16"/>
  <path d="M96 52H80L64 104L96 52Z" fill="#EAF2FF" fill-opacity="0.16"/>
  <path d="M64 24L48 52" stroke="#F3F8FF" stroke-opacity="0.86" stroke-width="1.5"/>
  <path d="M64 24L80 52" stroke="#F3F8FF" stroke-opacity="0.86" stroke-width="1.5"/>

  <path d="M22 31L24 35L28 37L24 39L22 43L20 39L16 37L20 35L22 31Z" fill="#6790CC" fill-opacity="0.86"/>
  <path d="M106 37L107.5 40L111 41.5L107.5 43L106 46L104.5 43L101 41.5L104.5 40L106 37Z" fill="#6790CC" fill-opacity="0.82"/>
</svg>
