<svg xmlns="http://www.w3.org/2000/svg" viewBox="0 0 128 128" fill="none">
  <defs>
    <linearGradient id="blue-diamond-bg" x1="10" y1="8" x2="118" y2="120" gradientUnits="userSpaceOnUse">
      <stop offset="0" stop-color="#132B55"/>
      <stop offset="1" stop-color="#0A1022"/>
    </linearGradient>
    <linearGradient id="blue-diamond-gem" x1="32" y1="24" x2="96" y2="104" gradientUnits="userSpaceOnUse">
      <stop offset="0" stop-color="#BDE8FF"/>
      <stop offset="0.5" stop-color="#4BA2FF"/>
      <stop offset="1" stop-color="#2D5DE0"/>
    </linearGradient>
    <linearGradient id="blue-diamond-facet" x1="64" y1="24" x2="64" y2="104" gradientUnits="userSpaceOnUse">
      <stop offset="0" stop-color="#FFFFFF" stop-opacity="0.95"/>
      <stop offset="1" stop-color="#B7D9FF" stop-opacity="0.18"/>
    </linearGradient>
  </defs>

  <rect x="4" y="4" width="120" height="120" rx="28" fill="url(#blue-diamond-bg)" stroke="#2F5EA9" stroke-opacity="0.6" stroke-width="2"/>
  <circle cx="64" cy="66" r="38" fill="#63B4FF" fill-opacity="0.12"/>

  <path d="M64 24L96 52L64 104L32 52L64 24Z" fill="url(#blue-diamond-gem)" stroke="#D8EEFF" stroke-opacity="0.85" stroke-width="2"/>
  <path d="M64 24L80 52H48L64 24Z" fill="url(#blue-diamond-facet)"/>
  <path d="M48 52H80L64 104L48 52Z" fill="#FFFFFF" fill-opacity="0.16"/>
  <path d="M32 52H48L64 104L32 52Z" fill="#EAF4FF" fill-opacity="0.11"/>
  <path d="M96 52H80L64 104L96 52Z" fill="#EAF4FF" fill-opacity="0.11"/>
  <path d="M64 24L48 52" stroke="#EDF6FF" stroke-opacity="0.74" stroke-width="1.5"/>
  <path d="M64 24L80 52" stroke="#EDF6FF" stroke-opacity="0.74" stroke-width="1.5"/>

  <path d="M22 31L24 35L28 37L24 39L22 43L20 39L16 37L20 35L22 31Z" fill="#BBDFFF" fill-opacity="0.88"/>
  <path d="M106 37L107.5 40L111 41.5L107.5 43L106 46L104.5 43L101 41.5L104.5 40L106 37Z" fill="#BBDFFF" fill-opacity="0.82"/>
</svg>
