<svg xmlns="http://www.w3.org/2000/svg" viewBox="0 0 128 128" fill="none">
  <defs>
    <linearGradient id="diamond-bg" x1="10" y1="8" x2="118" y2="120" gradientUnits="userSpaceOnUse">
      <stop offset="0" stop-color="#163A52"/>
      <stop offset="1" stop-color="#0A1320"/>
    </linearGradient>
    <linearGradient id="diamond-gem" x1="32" y1="24" x2="96" y2="104" gradientUnits="userSpaceOnUse">
      <stop offset="0" stop-color="#9AFDF0"/>
      <stop offset="0.52" stop-color="#2CE2C2"/>
      <stop offset="1" stop-color="#0DAF90"/>
    </linearGradient>
    <linearGradient id="diamond-facet" x1="64" y1="26" x2="64" y2="106" gradientUnits="userSpaceOnUse">
      <stop offset="0" stop-color="#D8FFF8" stop-opacity="0.95"/>
      <stop offset="1" stop-color="#84F6E2" stop-opacity="0.22"/>
    </linearGradient>
  </defs>

  <rect x="4" y="4" width="120" height="120" rx="28" fill="url(#diamond-bg)" stroke="#2D698A" stroke-opacity="0.55" stroke-width="2"/>
  <circle cx="64" cy="66" r="38" fill="#1BE3BE" fill-opacity="0.11"/>

  <path d="M64 24L96 52L64 104L32 52L64 24Z" fill="url(#diamond-gem)" stroke="#C9FFF6" stroke-opacity="0.8" stroke-width="2"/>
  <path d="M64 24L80 52H48L64 24Z" fill="url(#diamond-facet)"/>
  <path d="M48 52H80L64 104L48 52Z" fill="#E9FFFC" fill-opacity="0.18"/>
  <path d="M32 52H48L64 104L32 52Z" fill="#B4FFF3" fill-opacity="0.14"/>
  <path d="M96 52H80L64 104L96 52Z" fill="#B4FFF3" fill-opacity="0.14"/>
  <path d="M64 24L48 52" stroke="#EFFFFB" stroke-opacity="0.75" stroke-width="1.5"/>
  <path d="M64 24L80 52" stroke="#EFFFFB" stroke-opacity="0.75" stroke-width="1.5"/>

  <path d="M23 30L25 34L29 36L25 38L23 42L21 38L17 36L21 34L23 30Z" fill="#A5FFF2" fill-opacity="0.9"/>
  <path d="M105 38L106.5 41L110 42.5L106.5 44L105 47L103.5 44L100 42.5L103.5 41L105 38Z" fill="#A5FFF2" fill-opacity="0.82"/>
</svg>
