<?xml version="1.0" encoding="UTF-8"?>
<svg id="Layer_1" xmlns="http://www.w3.org/2000/svg" xmlns:xlink="http://www.w3.org/1999/xlink" version="1.1" viewBox="0 0 128 128">
  <!-- Generator: Adobe Illustrator 30.2.1, SVG Export Plug-In . SVG Version: 2.1.1 Build 1)  -->
  <defs>
    <style>
      .st0 {
        fill: #42dfc5;
        fill-opacity: .78;
      }

      .st1 {
        fill: #ffe087;
      }

      .st2 {
        fill: #89f8e5;
      }

      .st3 {
        fill: #efbe50;
        fill-opacity: .13;
      }

      .st4 {
        fill: #f0b741;
        stroke: #ffe2a7;
        stroke-opacity: .75;
      }

      .st5 {
        fill: url(#linear-gradient);
        stroke: #caab66;
        stroke-opacity: .9;
      }

      .st5, .st6, .st7 {
        stroke-width: 2px;
      }

      .st6 {
        fill: url(#linear-gradient2);
      }

      .st6, .st7 {
        stroke: #ffe9b8;
        stroke-opacity: .8;
      }

      .st7 {
        fill: url(#linear-gradient1);
      }
    </style>
    <linearGradient id="linear-gradient" x1="10" y1="122" x2="118" y2="10" gradientTransform="translate(0 130) scale(1 -1)" gradientUnits="userSpaceOnUse">
      <stop offset="0" stop-color="#fff7e4"/>
      <stop offset="1" stop-color="#f8ecd0"/>
    </linearGradient>
    <linearGradient id="linear-gradient1" x1="32.65" y1="88.78" x2="87.32" y2="43.45" gradientTransform="translate(0 130) scale(1 -1)" gradientUnits="userSpaceOnUse">
      <stop offset="0" stop-color="#ffe9af"/>
      <stop offset=".52" stop-color="#ffc648"/>
      <stop offset="1" stop-color="#c88408"/>
    </linearGradient>
    <linearGradient id="linear-gradient2" x1="17.25" y1="97.87" x2="99.25" y2="29.87" xlink:href="#linear-gradient1"/>
  </defs>
  <rect class="st5" x="4" y="4" width="120" height="120" rx="28" ry="28"/>
  <circle class="st3" cx="64" cy="66" r="40"/>
  <g>
    <path class="st7" d="M37.15,76.07l4-21.34,10.67,10.67,12-18.67,12,18.67,10.67-10.67,4,21.34h-53.34Z"/>
    <g>
      <path class="st6" d="M24,84.4l6-32,16,16,18-28,18,28,16-16,6,32H24Z"/>
      <rect class="st4" x="27" y="82.4" width="74" height="12" rx="4" ry="4"/>
    </g>
    <g>
      <circle class="st2" cx="56.16" cy="67.4" r="4"/>
      <circle class="st0" cx="56.16" cy="67.4" r="5"/>
    </g>
    <g>
      <circle class="st2" cx="71.84" cy="67.4" r="4"/>
      <circle class="st0" cx="71.84" cy="67.4" r="5"/>
    </g>
    <circle class="st1" cx="64" cy="37.8" r="4.2"/>
    <circle class="st1" cx="29.35" cy="50.01" r="3.5"/>
    <circle class="st1" cx="98" cy="50.78" r="3.5"/>
    <circle class="st1" cx="86.88" cy="53.51" r="2.07"/>
    <circle class="st1" cx="41.05" cy="53.51" r="2.07"/>
  </g>
</svg>