<?xml version="1.0" encoding="UTF-8"?>
<svg id="Layer_1" xmlns="http://www.w3.org/2000/svg" xmlns:xlink="http://www.w3.org/1999/xlink" version="1.1" viewBox="0 0 128 128">
  <!-- Generator: Adobe Illustrator 30.2.1, SVG Export Plug-In . SVG Version: 2.1.1 Build 1)  -->
  <defs>
    <style>
      .st0 {
        fill: #b688e6;
        fill-opacity: .12;
      }

      .st1 {
        fill-opacity: .78;
      }

      .st1, .st2 {
        fill: #9a81c7;
      }

      .st2 {
        fill-opacity: .7;
      }

      .st3 {
        fill: url(#linear-gradient);
        stroke: #ab90c9;
        stroke-opacity: .9;
      }

      .st3, .st4 {
        stroke-width: 2px;
      }

      .st5 {
        fill: #6be7d4;
      }

      .st6 {
        fill: #ffe087;
      }

      .st4 {
        fill: url(#linear-gradient1);
        stroke: #ffecc0;
        stroke-opacity: .84;
      }

      .st7 {
        fill: #a86bff;
      }

      .st8 {
        fill: #f2bb45;
        stroke: #ffe3a8;
        stroke-opacity: .78;
      }
    </style>
    <linearGradient id="linear-gradient" x1="10" y1="122" x2="118" y2="10" gradientTransform="translate(0 130) scale(1 -1)" gradientUnits="userSpaceOnUse">
      <stop offset="0" stop-color="#f6f0ff"/>
      <stop offset="1" stop-color="#e9dff8"/>
    </linearGradient>
    <linearGradient id="linear-gradient1" x1="18.66" y1="91.5" x2="102.66" y2="19.5" gradientTransform="translate(0 130) scale(1 -1)" gradientUnits="userSpaceOnUse">
      <stop offset="0" stop-color="#ffe9b3"/>
      <stop offset=".52" stop-color="#ffc94b"/>
      <stop offset="1" stop-color="#c98809"/>
    </linearGradient>
  </defs>
  <rect class="st3" x="4" y="4" width="120" height="120" rx="28" ry="28"/>
  <circle class="st0" cx="64" cy="66" r="40"/>
  <g>
    <path class="st4" d="M24.4,92.13l6-34,14,18,12-24,8-16,8,16,12,24,14-18,6,34H24.4Z"/>
    <rect class="st8" x="27.4" y="90.13" width="74" height="13" rx="4" ry="4"/>
    <path class="st6" d="M64.4,22.13l3,7h7l-5.5,4.5,2,7-6.5-4.5-6.5,4.5,2-7-5.5-4.5h7l3-7Z"/>
    <circle class="st7" cx="64.4" cy="62.13" r="6"/>
    <circle class="st5" cx="34" cy="75.93" r="4.3"/>
    <circle class="st5" cx="94.41" cy="75.93" r="4.3"/>
    <circle class="st6" cx="30.4" cy="58.13" r="3.6"/>
    <circle class="st6" cx="98.4" cy="58.13" r="3.6"/>
    <path class="st1" d="M14.4,41.13l2.2,4.4,4.6,2-4.6,2-2.2,4.4-2.2-4.4-4.6-2,4.6-2,2.2-4.4Z"/>
    <path class="st2" d="M114.4,36.13l2,4,4,2-4,2-2,4-2-4-4-2,4-2,2-4Z"/>
  </g>
</svg>