<?xml version="1.0" encoding="UTF-8"?>
<svg id="Layer_1" xmlns="http://www.w3.org/2000/svg" xmlns:xlink="http://www.w3.org/1999/xlink" version="1.1" viewBox="0 0 128 128">
  <!-- Generator: Adobe Illustrator 30.2.1, SVG Export Plug-In . SVG Version: 2.1.1 Build 1)  -->
  <defs>
    <style>
      .st0 {
        fill-opacity: .7;
      }

      .st0, .st1 {
        fill: #c5a5ff;
      }

      .st1 {
        fill-opacity: .78;
      }

      .st2 {
        fill: #b57aff;
        fill-opacity: .09;
      }

      .st3 {
        fill: #fff2cc;
      }

      .st4 {
        fill: url(#linear-gradient);
        stroke: #69439d;
        stroke-opacity: .6;
      }

      .st4, .st5 {
        stroke-width: 2px;
      }

      .st6 {
        fill: #6be7d4;
      }

      .st5 {
        fill: url(#linear-gradient1);
        stroke: #ffecc0;
        stroke-opacity: .84;
      }

      .st7 {
        fill: #a86bff;
      }

      .st8 {
        fill: #fff1cb;
      }

      .st9 {
        fill: #f2bb45;
        stroke: #ffe3a8;
        stroke-opacity: .78;
      }
    </style>
    <linearGradient id="linear-gradient" x1="10" y1="122" x2="118" y2="10" gradientTransform="translate(0 130) scale(1 -1)" gradientUnits="userSpaceOnUse">
      <stop offset="0" stop-color="#281d3f"/>
      <stop offset="1" stop-color="#0e0a1b"/>
    </linearGradient>
    <linearGradient id="linear-gradient1" x1="18.26" y1="93.64" x2="102.26" y2="21.64" gradientTransform="translate(0 130) scale(1 -1)" gradientUnits="userSpaceOnUse">
      <stop offset="0" stop-color="#ffe9b3"/>
      <stop offset=".52" stop-color="#ffc94b"/>
      <stop offset="1" stop-color="#c98809"/>
    </linearGradient>
  </defs>
  <rect class="st4" x="4" y="4" width="120" height="120" rx="28" ry="28"/>
  <circle class="st2" cx="64" cy="66" r="40"/>
  <g>
    <path class="st5" d="M24,90l6-34,14,18,12-24,8-16,8,16,12,24,14-18,6,34H24Z"/>
    <rect class="st9" x="27" y="88" width="74" height="13" rx="4" ry="4"/>
    <path class="st3" d="M64,20l3,7h7l-5.5,4.5,2,7-6.5-4.5-6.5,4.5,2-7-5.5-4.5h7l3-7Z"/>
    <circle class="st7" cx="64" cy="60" r="6"/>
    <circle class="st6" cx="33.6" cy="73.8" r="4.3"/>
    <circle class="st6" cx="94.01" cy="73.8" r="4.3"/>
    <circle class="st8" cx="30" cy="56" r="3.6"/>
    <circle class="st8" cx="98" cy="56" r="3.6"/>
    <path class="st1" d="M14,39l2.2,4.4,4.6,2-4.6,2-2.2,4.4-2.2-4.4-4.6-2,4.6-2,2.2-4.4Z"/>
    <path class="st0" d="M114,34l2,4,4,2-4,2-2,4-2-4-4-2,4-2,2-4Z"/>
  </g>
</svg>