<svg xmlns="http://www.w3.org/2000/svg" viewBox="0 0 128 128" fill="none">
  <defs>
    <linearGradient id="ruby-bg" x1="10" y1="8" x2="118" y2="120" gradientUnits="userSpaceOnUse">
      <stop offset="0" stop-color="#4A122A"/>
      <stop offset="1" stop-color="#170812"/>
    </linearGradient>
    <linearGradient id="ruby-gem" x1="32" y1="24" x2="96" y2="104" gradientUnits="userSpaceOnUse">
      <stop offset="0" stop-color="#FFD6E6"/>
      <stop offset="0.52" stop-color="#FF4C8F"/>
      <stop offset="1" stop-color="#B11853"/>
    </linearGradient>
    <linearGradient id="ruby-facet" x1="64" y1="24" x2="64" y2="104" gradientUnits="userSpaceOnUse">
      <stop offset="0" stop-color="#FFFFFF" stop-opacity="0.95"/>
      <stop offset="1" stop-color="#FFBFD8" stop-opacity="0.18"/>
    </linearGradient>
  </defs>

  <rect x="4" y="4" width="120" height="120" rx="28" fill="url(#ruby-bg)" stroke="#8D2D57" stroke-opacity="0.62" stroke-width="2"/>
  <circle cx="64" cy="66" r="38" fill="#FF6EA6" fill-opacity="0.14"/>

  <path d="M64 24L96 52L64 104L32 52L64 24Z" fill="url(#ruby-gem)" stroke="#FFE7F1" stroke-opacity="0.84" stroke-width="2"/>
  <path d="M64 24L80 52H48L64 24Z" fill="url(#ruby-facet)"/>
  <path d="M48 52H80L64 104L48 52Z" fill="#FFFFFF" fill-opacity="0.17"/>
  <path d="M32 52H48L64 104L32 52Z" fill="#FFE9F2" fill-opacity="0.12"/>
  <path d="M96 52H80L64 104L96 52Z" fill="#FFE9F2" fill-opacity="0.12"/>
  <path d="M64 24L48 52" stroke="#FFF4F9" stroke-opacity="0.76" stroke-width="1.5"/>
  <path d="M64 24L80 52" stroke="#FFF4F9" stroke-opacity="0.76" stroke-width="1.5"/>

  <path d="M22 31L24 35L28 37L24 39L22 43L20 39L16 37L20 35L22 31Z" fill="#FFD2E6" fill-opacity="0.9"/>
  <path d="M106 37L107.5 40L111 41.5L107.5 43L106 46L104.5 43L101 41.5L104.5 40L106 37Z" fill="#FFD2E6" fill-opacity="0.84"/>
</svg>
